<svg xmlns="http://www.w3.org/2000/svg" viewBox="0 0 1200 1400">
  <defs>
    <linearGradient id="bg3" x1="0" y1="0" x2="1" y2="1">
      <stop offset="0%" stop-color="#090b12" />
      <stop offset="100%" stop-color="#121a2b" />
    </linearGradient>
    <radialGradient id="coreGold" cx="45%" cy="40%" r="48%">
      <stop offset="0%" stop-color="#f3cc7a" stop-opacity="0.92" />
      <stop offset="100%" stop-color="#f3cc7a" stop-opacity="0" />
    </radialGradient>
    <radialGradient id="edgeBlue" cx="84%" cy="24%" r="34%">
      <stop offset="0%" stop-color="#2f7dff" stop-opacity="0.76" />
      <stop offset="100%" stop-color="#2f7dff" stop-opacity="0" />
    </radialGradient>
  </defs>
  <rect width="1200" height="1400" fill="url(#bg3)" />
  <ellipse cx="520" cy="600" rx="510" ry="470" fill="url(#coreGold)" />
  <ellipse cx="980" cy="320" rx="300" ry="320" fill="url(#edgeBlue)" />
  <ellipse cx="600" cy="700" rx="350" ry="510" fill="#0e1322" fill-opacity="0.66" />
  <ellipse cx="600" cy="700" rx="260" ry="420" fill="#111a2e" fill-opacity="0.5" />
  <path d="M450 520C520 470 670 470 750 530C830 590 840 740 780 840C720 940 590 980 500 930C410 880 360 760 380 650C390 600 410 550 450 520Z" fill="#2f7dff" fill-opacity="0.14" />
</svg>
